<svg version="1.1" xmlns="http://www.w3.org/2000/svg" viewBox="0 0 284.5442428588867 487.33331298828125" width="284.5442428588867" height="487.33331298828125" class="excalidraw-svg">
  <!-- svg-source:excalidraw -->
  
  <defs>
    <style class="style-fonts">
      @font-face {
        font-family: "Virgil";
        src: url("https://excalidraw.com/Virgil.woff2");
      }
      @font-face {
        font-family: "Cascadia";
        src: url("https://excalidraw.com/Cascadia.woff2");
      }
      @font-face {
        font-family: "Assistant";
        src: url("https://excalidraw.com/Assistant-Regular.woff2");
      }
    </style>
    
  </defs>
  <rect x="0" y="0" width="284.5442428588867" height="487.33331298828125" fill="#ffffff"/><g transform="translate(115.55010223388672 92.83331298828125) rotate(0 79.4970703125 11.5)"><text x="0" y="18.400390625" font-family="Helvetica, Segoe UI Emoji" font-size="20px" fill="#1e1e1e" text-anchor="start" style="white-space: pre;" direction="ltr" dominant-baseline="alphabetic">c b a e b a b a c d</text></g><g transform="translate(114.54364013671875 260.49993896484375) rotate(0 21.6796875 11.5)"><text x="0" y="18.400390625" font-family="Helvetica, Segoe UI Emoji" font-size="20px" fill="#1e1e1e" text-anchor="start" style="white-space: pre;" direction="ltr" dominant-baseline="alphabetic">a b c</text></g><g transform="translate(19 59.59996948242187) rotate(0 9 41.4)"><text x="0" y="33.120703125" font-family="Helvetica, Segoe UI Emoji" font-size="36px" fill="#e03131" text-anchor="start" style="white-space: pre;" direction="ltr" dominant-baseline="alphabetic">s</text><text x="0" y="74.520703125" font-family="Helvetica, Segoe UI Emoji" font-size="36px" fill="#e03131" text-anchor="start" style="white-space: pre;" direction="ltr" dominant-baseline="alphabetic"/></g><g transform="translate(10 249.6666259765625) rotate(0 10.0107421875 20.7)"><text x="0" y="33.120703125" font-family="Helvetica, Segoe UI Emoji" font-size="36px" fill="#e03131" text-anchor="start" style="white-space: pre;" direction="ltr" dominant-baseline="alphabetic">p</text></g><g mask="url(#mask-dd9_HIK8hsieDX2WmwAQp)" stroke-linecap="round"><g transform="translate(121.33331298828125 10) rotate(0 0.000030517578125 37.66667175292969)"><path d="M0 0 C0 12.56, 0 62.78, 0 75.33 M0 0 C0 12.56, 0 62.78, 0 75.33" stroke="#e03131" stroke-width="1" fill="none"/></g><g transform="translate(121.33331298828125 10) rotate(0 0.000030517578125 37.66667175292969)"><path d="M0 75.33 L-6.34 61.74 L6.34 61.74 L0 75.33" stroke="none" stroke-width="0" fill="#e03131" fill-rule="evenodd"/><path d="M0 75.33 C-1.83 71.41, -3.66 67.48, -6.34 61.74 M0 75.33 C-1.82 71.44, -3.64 67.54, -6.34 61.74 M-6.34 61.74 C-2.26 61.74, 1.82 61.74, 6.34 61.74 M-6.34 61.74 C-3.29 61.74, -0.24 61.74, 6.34 61.74 M6.34 61.74 C4.48 65.73, 2.61 69.73, 0 75.33 M6.34 61.74 C4.83 64.97, 3.33 68.2, 0 75.33 M0 75.33 C0 75.33, 0 75.33, 0 75.33 M0 75.33 C0 75.33, 0 75.33, 0 75.33" stroke="#e03131" stroke-width="1" fill="none"/></g></g><mask id="mask-dd9_HIK8hsieDX2WmwAQp"><rect x="0" y="0" fill="#fff" width="221.3333740234375" height="185.33334350585938"/><rect x="105.77084350585938" y="38.4666717529297" fill="#000" width="31.125" height="18.4" opacity="1"/></mask><g transform="translate(105.77084350585938 38.4666717529297) rotate(0 15.5625 9.199999999999989)"><text x="15.5625" y="14.720312499999999" font-family="Helvetica, Segoe UI Emoji" font-size="16px" fill="#e03131" text-anchor="middle" style="white-space: pre;" direction="ltr" dominant-baseline="alphabetic">right</text></g><g mask="url(#mask-dIoNDAk0hXg36MTkARjSS)" stroke-linecap="round"><g transform="translate(121.33331298828125 201.99993896484375) rotate(0 0 -36.33332824707031)"><path d="M0 0 C0 -12.11, 0 -60.56, 0 -72.67 M0 0 C0 -12.11, 0 -60.56, 0 -72.67" stroke="#e03131" stroke-width="1" fill="none"/></g><g transform="translate(121.33331298828125 201.99993896484375) rotate(0 0 -36.33332824707031)"><path d="M0 -72.67 L6.34 -59.07 L-6.34 -59.07 L0 -72.67" stroke="none" stroke-width="0" fill="#e03131" fill-rule="evenodd"/><path d="M0 -72.67 C2.07 -68.22, 4.15 -63.77, 6.34 -59.07 M0 -72.67 C2.29 -67.75, 4.59 -62.83, 6.34 -59.07 M6.34 -59.07 C1.36 -59.07, -3.63 -59.07, -6.34 -59.07 M6.34 -59.07 C3.63 -59.07, 0.92 -59.07, -6.34 -59.07 M-6.34 -59.07 C-4.65 -62.69, -2.96 -66.31, 0 -72.67 M-6.34 -59.07 C-3.96 -64.18, -1.58 -69.29, 0 -72.67 M0 -72.67 C0 -72.67, 0 -72.67, 0 -72.67 M0 -72.67 C0 -72.67, 0 -72.67, 0 -72.67" stroke="#e03131" stroke-width="1" fill="none"/></g></g><mask id="mask-dIoNDAk0hXg36MTkARjSS"><rect x="0" y="0" fill="#fff" width="221.33331298828125" height="374.6665954589844"/><rect x="110.66143798828125" y="156.46661071777345" fill="#000" width="21.34375" height="18.4" opacity="1"/></mask><g transform="translate(110.66143798828125 156.46661071777345) rotate(0 10.671875 9.200000000000003)"><text x="10.671875" y="14.720312499999999" font-family="Helvetica, Segoe UI Emoji" font-size="16px" fill="#e03131" text-anchor="middle" style="white-space: pre;" direction="ltr" dominant-baseline="alphabetic">left</text></g><g mask="url(#mask-gi4m2yr0U1ZUTtVRKZkYA)" stroke-linecap="round"><g transform="translate(118.00003051757812 285.3333740234375) rotate(0 0.000030517578125 37.66667175292969)"><path d="M0 0 C0 12.56, 0 62.78, 0 75.33 M0 0 C0 12.56, 0 62.78, 0 75.33" stroke="#e03131" stroke-width="1" fill="none"/></g><g transform="translate(118.00003051757812 285.3333740234375) rotate(0 0.000030517578125 37.66667175292969)"><path d="M0 75.33 L-6.34 61.74 L6.34 61.74 L0 75.33" stroke="none" stroke-width="0" fill="#e03131" fill-rule="evenodd"/><path d="M0 75.33 C-1.51 72.1, -3.01 68.87, -6.34 61.74 M0 75.33 C-1.76 71.57, -3.51 67.8, -6.34 61.74 M-6.34 61.74 C-2.85 61.74, 0.65 61.74, 6.34 61.74 M-6.34 61.74 C-3.49 61.74, -0.64 61.74, 6.34 61.74 M6.34 61.74 C4.33 66.05, 2.32 70.36, 0 75.33 M6.34 61.74 C4.46 65.77, 2.58 69.79, 0 75.33 M0 75.33 C0 75.33, 0 75.33, 0 75.33 M0 75.33 C0 75.33, 0 75.33, 0 75.33" stroke="#e03131" stroke-width="1" fill="none"/></g></g><mask id="mask-gi4m2yr0U1ZUTtVRKZkYA"><rect x="0" y="0" fill="#fff" width="218.00009155273438" height="460.6667175292969"/><rect x="102.43756103515625" y="313.8000457763672" fill="#000" width="31.125" height="18.4" opacity="1"/></mask><g transform="translate(102.43756103515625 313.8000457763672) rotate(0 15.5625 9.200000000000003)"><text x="15.5625" y="14.720312499999999" font-family="Helvetica, Segoe UI Emoji" font-size="16px" fill="#e03131" text-anchor="middle" style="white-space: pre;" direction="ltr" dominant-baseline="alphabetic">right</text></g><g mask="url(#mask-oPzObmcNhNV0MDy_1odQg)" stroke-linecap="round"><g transform="translate(118.00003051757812 477.33331298828125) rotate(0 0 -36.33332824707031)"><path d="M0 0 C0 -12.11, 0 -60.56, 0 -72.67 M0 0 C0 -12.11, 0 -60.56, 0 -72.67" stroke="#e03131" stroke-width="1" fill="none"/></g><g transform="translate(118.00003051757812 477.33331298828125) rotate(0 0 -36.33332824707031)"><path d="M0 -72.67 L6.34 -59.07 L-6.34 -59.07 L0 -72.67" stroke="none" stroke-width="0" fill="#e03131" fill-rule="evenodd"/><path d="M0 -72.67 C2 -68.37, 4 -64.08, 6.34 -59.07 M0 -72.67 C1.65 -69.12, 3.31 -65.57, 6.34 -59.07 M6.34 -59.07 C2.93 -59.07, -0.47 -59.07, -6.34 -59.07 M6.34 -59.07 C2.44 -59.07, -1.46 -59.07, -6.34 -59.07 M-6.34 -59.07 C-3.96 -64.17, -1.58 -69.27, 0 -72.67 M-6.34 -59.07 C-4.68 -62.63, -3.02 -66.19, 0 -72.67 M0 -72.67 C0 -72.67, 0 -72.67, 0 -72.67 M0 -72.67 C0 -72.67, 0 -72.67, 0 -72.67" stroke="#e03131" stroke-width="1" fill="none"/></g></g><mask id="mask-oPzObmcNhNV0MDy_1odQg"><rect x="0" y="0" fill="#fff" width="218.00003051757812" height="649.9999694824219"/><rect x="107.32815551757812" y="431.7999847412109" fill="#000" width="21.34375" height="18.4" opacity="1"/></mask><g transform="translate(107.32815551757812 431.79998474121095) rotate(0 10.671875 9.199999999999989)"><text x="10.671875" y="14.720312499999999" font-family="Helvetica, Segoe UI Emoji" font-size="16px" fill="#e03131" text-anchor="middle" style="white-space: pre;" direction="ltr" dominant-baseline="alphabetic">left</text></g></svg>